<svg id="Layer_1" data-name="Layer 1" xmlns="http://www.w3.org/2000/svg" xmlns:xlink="http://www.w3.org/1999/xlink" viewBox="0 0 400.32 401.94"><defs><style>.cls-1{fill:url(#linear-gradient);}.cls-2{fill:url(#linear-gradient-2);}</style><linearGradient id="linear-gradient" x1="170.2" y1="44.98" x2="384.81" y2="433.55" gradientUnits="userSpaceOnUse"><stop offset="0" stop-color="#e9cb6b"/><stop offset="1" stop-color="#bb9a3f"/></linearGradient><linearGradient id="linear-gradient-2" x1="60.3" y1="107.33" x2="274.08" y2="494.41" xlink:href="#linear-gradient"/></defs><path class="cls-1" d="M443.49,198.78l-84.09,0c-.07.07-5.41,0-5.41,0V377.26l-43-43.09V109.64H176V156H291v42.78H265V467c-14.34-14.29-28.17-28.15-43-43.18V199H85.87l-42.7-43H133V65.05H354v91h46.83C415.1,170.33,429.59,184.83,443.49,198.78Z" transform="translate(-43.17 -65.05)"/><path class="cls-2" d="M175,218.66v158c-14-14-27.83-27.89-43-43.11L133,305V218.65Z" transform="translate(-43.17 -65.05)"/></svg>